<?xml version="1.0" standalone="no"?>
<!DOCTYPE svg PUBLIC "-//W3C//DTD SVG 20010904//EN"
 "http://www.w3.org/TR/2001/REC-SVG-20010904/DTD/svg10.dtd">
<svg version="1.0" xmlns="http://www.w3.org/2000/svg"
 width="721.000000pt" height="721.000000pt" viewBox="0 0 721.000000 721.000000"
 preserveAspectRatio="xMidYMid meet">
<metadata>
Created by potrace 1.11, written by Peter Selinger 2001-2013
</metadata>
<g transform="translate(0.000000,721.000000) scale(0.100000,-0.100000)"
fill="#000000" stroke="none">
<path d="M4988 7172 c-19 -21 -49 -60 -68 -87 -18 -28 -38 -53 -44 -57 -62
-40 -408 -374 -501 -482 -27 -32 -75 -85 -105 -118 l-56 -59 -77 21 c-42 12
-86 19 -96 15 -21 -6 -139 8 -266 33 -68 13 -102 26 -140 52 -59 41 -171 154
-191 193 -23 43 -37 23 -30 -42 7 -59 33 -150 47 -165 10 -11 12 -46 4 -46
-29 0 -264 88 -309 115 -33 19 -61 33 -64 30 -9 -9 18 -77 49 -121 15 -22 50
-56 78 -75 28 -19 51 -37 51 -40 0 -8 -38 -19 -68 -19 -15 0 -26 8 -31 24 -5
13 -33 41 -63 62 -29 21 -83 65 -120 98 -61 54 -124 95 -203 133 -16 8 -38 19
-48 24 -72 39 -616 229 -656 229 -14 0 -41 4 -60 10 -28 8 -36 6 -47 -8 -22
-29 -55 -144 -65 -222 -32 -268 -37 -389 -29 -675 10 -348 21 -450 62 -574
l31 -95 -28 -50 c-23 -41 -95 -149 -180 -271 -15 -22 2 -30 30 -15 14 7 27 11
30 9 2 -3 0 -79 -6 -170 -5 -90 -12 -238 -14 -328 l-5 -163 -33 -41 c-17 -22
-48 -59 -68 -81 -63 -73 -96 -121 -92 -133 2 -6 -5 -31 -16 -54 -27 -54 -26
-59 4 -59 14 0 25 -2 25 -5 0 -14 -52 -105 -74 -133 -30 -35 -34 -72 -8 -72 9
0 23 -9 30 -20 16 -26 1 -57 -62 -127 -25 -28 -46 -60 -46 -72 0 -24 -33 -86
-63 -118 -11 -13 -19 -23 -16 -24 2 0 17 -3 33 -5 81 -13 123 -70 112 -147 -4
-27 -18 -59 -32 -76 -13 -16 -24 -34 -24 -40 0 -7 -20 -34 -45 -60 -44 -47
-58 -81 -32 -81 11 0 250 60 305 76 16 5 22 2 22 -10 0 -9 7 -19 15 -22 24
-10 17 -27 -20 -53 -62 -42 -49 -46 132 -43 143 3 168 1 175 -12 5 -9 18 -16
28 -16 28 0 25 -15 -15 -68 -33 -42 -42 -79 -19 -75 57 10 173 23 204 23 21 0
69 -13 106 -29 38 -16 86 -32 107 -36 20 -4 37 -11 37 -16 0 -4 -20 -28 -43
-53 -62 -63 -178 -239 -212 -321 -16 -38 -49 -95 -73 -125 -48 -59 -140 -143
-184 -166 -41 -21 -34 -34 18 -34 45 0 46 -1 39 -27 -8 -35 -50 -105 -76 -129
-19 -17 -21 -17 -47 0 -15 9 -66 36 -114 58 -69 33 -87 45 -85 61 2 15 -9 24
-48 38 -39 14 -82 18 -200 18 -243 1 -362 -25 -607 -132 -138 -60 -192 -93
-253 -156 -21 -23 -43 -41 -47 -41 -4 0 -8 22 -8 49 0 28 -4 52 -9 55 -5 3
-29 -16 -54 -43 -52 -55 -120 -188 -141 -276 -7 -33 -25 -100 -39 -150 -37
-134 -51 -268 -45 -454 4 -132 3 -161 -8 -161 -19 0 -18 -7 5 -32 29 -30 53
-17 46 24 -26 146 -32 282 -13 276 14 -5 69 -206 62 -229 -5 -19 29 -84 95
-183 49 -72 159 -187 233 -243 41 -30 51 -51 17 -32 -21 11 -38 0 -39 -25 0
-20 105 -106 164 -134 90 -44 251 -102 283 -102 55 0 103 -13 103 -26 0 -11
30 -14 155 -14 l154 0 6 38 c14 81 17 92 30 92 8 0 23 20 33 43 29 65 66 87
147 87 60 0 66 2 60 18 -21 52 -26 85 -14 93 10 6 10 24 -1 92 -17 114 -10
258 18 317 11 25 33 59 49 75 15 17 50 56 76 88 49 58 67 64 67 23 0 -38 88
-373 110 -418 11 -23 20 -56 20 -74 0 -18 6 -59 14 -91 8 -32 31 -131 52 -220
47 -195 64 -212 64 -63 0 102 6 116 37 85 19 -20 37 -15 41 11 2 10 10 24 18
30 8 7 21 45 30 85 11 58 60 184 80 208 2 2 18 -6 37 -18 33 -20 87 -29 87
-13 0 4 -7 29 -15 56 -18 60 -11 206 11 206 28 0 25 24 -11 75 -44 65 -69 127
-100 256 -22 91 -23 108 -15 226 16 222 33 289 134 527 48 112 54 136 35 136
-23 0 1 93 32 125 16 17 29 40 29 52 0 12 6 23 13 26 9 3 8 13 -5 41 -10 20
-18 43 -18 52 0 18 43 88 83 134 60 69 230 210 254 210 31 0 29 16 -4 25 -39
9 -78 44 -78 68 0 20 -7 23 -85 28 -81 7 -190 34 -190 48 0 3 22 24 50 46 59
48 63 65 16 65 -21 0 -36 6 -40 15 -3 8 -16 15 -29 15 -34 0 -51 23 -37 50 6
11 8 25 5 30 -6 10 -60 6 -125 -11 -54 -13 -100 -12 -165 4 -47 12 -67 23 -93
54 -53 60 -61 84 -63 179 -2 49 -6 94 -11 100 -4 6 -7 28 -5 49 2 38 1 39 -40
47 -55 12 -68 28 -54 69 17 49 56 94 111 130 55 36 60 44 30 52 -48 12 -2 70
115 146 79 51 135 93 135 102 0 4 -17 9 -37 13 -56 9 -71 21 -56 45 15 23 8
31 -29 31 -42 0 -94 25 -114 54 -15 24 -15 36 -5 115 9 72 20 107 56 180 54
110 56 123 15 115 -16 -4 -30 -3 -30 2 1 41 200 298 285 367 88 72 125 87 223
87 45 0 82 3 82 6 0 4 -16 24 -35 45 -32 35 -54 84 -43 94 2 3 19 1 36 -5 l32
-9 -6 66 -7 65 27 -17 c15 -10 29 -16 31 -13 2 2 -14 15 -35 28 -22 14 -40 28
-40 32 0 4 21 41 46 83 40 66 54 80 117 117 l72 43 130 0 c113 -1 135 -3 170
-22 60 -32 103 -73 133 -124 32 -56 122 -192 131 -199 4 -3 21 -24 40 -48 18
-23 36 -40 41 -37 4 3 11 36 15 75 4 38 10 70 14 70 11 0 34 -29 51 -63 8 -15
33 -46 57 -68 24 -22 43 -44 43 -49 0 -6 3 -10 8 -10 15 1 45 54 72 128 15 42
32 78 38 80 6 2 14 -14 17 -35 15 -89 22 -92 67 -28 34 48 51 55 67 28 8 -14
13 -15 33 -6 12 6 30 14 40 16 9 3 31 33 48 66 18 33 36 58 41 55 5 -3 9 2 9
11 0 36 50 112 90 139 99 65 245 102 338 85 98 -19 151 -57 195 -141 16 -31
112 -120 180 -166 45 -32 107 -96 107 -112 0 -5 -36 -28 -80 -52 -44 -24 -79
-47 -77 -53 2 -5 44 -15 93 -23 83 -12 174 -45 174 -63 0 -4 -9 -11 -21 -14
-39 -13 -15 -39 70 -81 120 -58 166 -119 247 -328 24 -61 25 -73 14 -109 -12
-41 -29 -61 -94 -112 -49 -38 -96 -81 -96 -87 0 -3 12 -3 28 -1 l27 4 -29 -25
c-16 -13 -47 -33 -68 -43 -21 -10 -38 -21 -38 -25 0 -5 29 -8 64 -8 39 0 90
-9 135 -23 61 -20 82 -34 136 -87 35 -35 67 -76 70 -91 11 -49 -39 -253 -79
-325 -15 -26 -24 -49 -22 -52 3 -2 21 1 41 8 20 7 39 9 43 6 3 -4 6 -33 7 -64
0 -62 9 -44 -132 -250 -24 -35 -43 -65 -43 -68 0 -2 18 -4 40 -4 22 0 40 -4
40 -9 0 -23 -56 -71 -122 -106 -94 -49 -130 -74 -125 -88 2 -7 19 -10 40 -9
20 2 37 0 37 -5 0 -20 -86 -105 -135 -133 -31 -17 -52 -36 -49 -42 4 -6 41 -9
93 -7 47 2 91 1 96 -2 6 -4 23 -9 38 -13 35 -8 107 -53 107 -66 0 -5 -11 -12
-26 -16 -37 -9 -26 -33 28 -61 73 -38 83 -84 83 -388 0 -99 -5 -172 -12 -192
-14 -37 -4 -49 23 -28 33 25 37 17 32 -60 -3 -41 -3 -75 0 -75 3 0 16 10 29
22 14 13 27 18 32 12 22 -21 52 -122 66 -216 15 -97 15 -104 -4 -162 -11 -34
-29 -106 -41 -161 -14 -71 -37 -135 -80 -227 -75 -159 -79 -188 -18 -128 16
16 33 30 38 30 5 0 8 -36 8 -79 0 -50 6 -92 16 -113 8 -18 16 -46 18 -62 3
-31 28 -50 28 -22 0 9 4 16 9 16 43 0 22 -367 -25 -462 -17 -33 -17 -38 -3
-38 7 0 27 16 46 35 44 46 55 44 47 -5 -7 -45 11 -56 34 -20 17 27 36 26 28
-2 -14 -51 -46 -212 -46 -234 0 -58 19 -12 65 159 27 100 59 205 72 232 13 28
26 67 29 87 6 34 9 37 30 32 24 -6 24 -5 24 72 0 49 11 129 29 214 16 74 35
171 41 215 14 96 40 205 49 205 13 0 61 -51 61 -65 0 -7 8 -16 19 -20 10 -3
31 -24 47 -46 15 -22 51 -61 79 -87 116 -106 169 -227 229 -519 11 -58 26 -67
45 -27 6 14 17 24 24 22 23 -8 77 -133 93 -213 8 -44 15 -126 15 -183 l0 -102
166 0 165 0 -4 138 -4 137 -73 140 c-41 77 -84 154 -97 172 -13 17 -24 35 -24
38 0 4 16 5 37 3 20 -2 38 2 40 7 2 6 -37 46 -87 90 -50 44 -102 96 -116 117
-15 20 -49 55 -78 76 -28 22 -71 59 -96 83 -58 55 -123 95 -235 142 -49 22
-97 43 -105 48 -8 5 -28 15 -45 22 -63 30 -68 43 -50 151 8 53 15 109 15 126
0 16 4 30 8 30 5 0 16 6 26 13 17 13 17 15 2 45 -9 17 -16 40 -16 52 0 18 4
20 40 14 30 -5 40 -3 40 7 0 8 -20 59 -45 114 -39 87 -46 116 -59 225 -14 121
-48 277 -81 369 -8 24 -15 47 -15 52 0 5 20 9 44 9 25 0 47 4 51 9 3 5 -12 22
-32 37 -21 16 -74 62 -118 104 -44 41 -121 109 -169 150 -49 41 -109 94 -133
117 -24 23 -77 59 -118 80 -41 21 -75 40 -75 43 0 3 28 26 61 50 34 25 89 75
123 112 53 58 184 157 209 158 18 0 106 68 182 140 44 42 97 86 118 99 43 26
47 43 12 59 -14 6 -25 16 -25 21 0 11 45 44 73 54 32 12 17 33 -43 62 -33 16
-60 32 -60 37 0 4 11 15 25 24 17 11 24 23 20 34 -4 12 10 26 52 53 76 48 103
72 103 90 0 12 -111 92 -217 157 -25 15 -135 124 -141 139 -1 4 9 13 23 19 15
7 23 17 19 26 -6 15 3 19 64 31 17 4 32 10 32 14 0 4 -28 29 -61 57 -157 126
-186 150 -209 171 -14 13 -28 23 -32 23 -24 0 -68 205 -68 319 0 42 -9 132
-21 201 -18 108 -28 140 -75 235 -29 61 -71 139 -92 175 -41 70 -62 169 -62
293 0 100 -38 299 -100 519 -30 109 -59 181 -120 305 -44 88 -80 164 -80 167
0 3 -48 76 -106 163 -111 165 -177 243 -205 243 -9 0 -32 -17 -51 -38z m140
-177 c11 -14 61 -107 111 -207 70 -140 98 -210 122 -298 16 -63 34 -119 38
-125 5 -5 12 -32 16 -60 10 -60 8 -52 22 -95 6 -19 15 -60 18 -90 4 -30 16
-108 27 -174 12 -74 16 -122 10 -128 -6 -6 -28 16 -59 59 -40 55 -52 82 -61
132 -6 35 -19 72 -28 82 -9 10 -16 35 -17 56 0 21 -6 47 -14 58 -7 11 -13 49
-14 85 -1 36 -4 76 -8 90 -6 23 -9 21 -40 -30 -38 -63 -129 -160 -149 -160
-10 0 -12 7 -8 25 7 29 -1 31 -32 9 -13 -9 -25 -14 -28 -11 -3 2 14 41 36 85
23 45 39 86 35 92 -10 16 -31 12 -56 -14 -13 -13 -52 -38 -86 -55 -35 -17 -63
-36 -63 -41 0 -10 -99 -80 -114 -80 -4 0 -1 12 9 26 9 14 23 47 30 72 7 26 30
92 50 147 21 55 48 132 62 170 13 39 28 79 32 90 5 11 18 47 29 80 44 136 86
235 98 235 7 0 21 -11 32 -25z m-3023 -249 c11 -7 58 -26 105 -42 93 -31 153
-64 245 -134 33 -25 77 -56 97 -69 21 -12 41 -28 45 -35 5 -6 38 -33 75 -59
37 -26 89 -66 115 -88 25 -23 64 -52 85 -65 35 -22 117 -121 110 -134 -1 -3
-13 -8 -27 -12 -13 -3 -37 -15 -52 -25 -15 -11 -53 -30 -83 -42 l-56 -23 -99
25 c-55 14 -140 40 -190 57 -150 52 -155 54 -161 47 -10 -10 74 -144 113 -180
18 -17 33 -35 33 -40 0 -4 -45 -6 -100 -4 -55 3 -100 1 -100 -3 0 -16 52 -50
86 -56 19 -3 37 -10 40 -15 2 -5 -30 -26 -73 -48 -43 -22 -87 -47 -98 -56 -19
-15 -16 -16 48 -12 37 3 67 1 67 -2 0 -4 -21 -23 -47 -41 -26 -19 -64 -51 -84
-72 l-36 -38 -32 69 c-74 162 -156 459 -155 566 2 101 58 451 84 519 11 30 18
31 45 12z"/>
<path d="M4900 5218 c-29 -44 -31 -53 -6 -25 14 15 26 32 26 38 0 14 -4 11
-20 -13z"/>
<path d="M3436 5193 c-6 -14 -5 -15 5 -6 7 7 10 15 7 18 -3 3 -9 -2 -12 -12z"/>
<path d="M4340 5204 c0 -7 52 -25 57 -20 2 2 -10 8 -26 14 -17 6 -31 9 -31 6z"/>
<path d="M4680 4750 c-192 -26 -330 -105 -405 -232 l-19 -33 26 17 26 17 -9
-32 c-12 -41 -12 -117 0 -117 5 0 12 16 16 36 8 46 50 142 73 167 41 46 224
115 328 124 114 9 376 -40 442 -83 45 -29 109 -102 129 -146 44 -98 44 -98 38
-44 -6 58 -42 138 -82 182 -42 46 -151 111 -218 130 -70 19 -252 26 -345 14z"/>
<path d="M4586 4639 c-156 -54 -237 -207 -181 -343 9 -21 14 -44 11 -52 -6
-15 124 -85 195 -104 97 -27 424 -4 499 35 47 24 35 27 -22 5 -29 -11 -70 -20
-92 -20 l-38 0 17 26 c26 39 47 151 40 208 -11 91 -78 189 -170 247 -42 27
-178 26 -259 -2z m275 -96 c6 -15 8 -35 6 -45 -4 -15 1 -18 29 -18 44 0 66
-32 75 -114 10 -79 -3 -127 -49 -178 l-36 -40 -126 7 c-128 6 -217 24 -203 40
4 4 2 5 -5 1 -7 -4 -25 -2 -41 5 -22 10 -33 27 -50 72 -12 33 -19 62 -16 65 9
10 79 31 84 27 2 -3 -1 -5 -8 -5 -8 0 -11 -11 -9 -27 2 -16 9 -28 16 -28 7 0
21 -10 31 -23 33 -44 208 -63 256 -28 19 14 45 79 45 114 0 30 -25 78 -45 85
-8 4 -15 13 -15 20 0 8 -6 20 -14 26 -22 18 -17 59 8 64 47 9 57 7 67 -20z
m-309 -59 c28 -46 23 -69 -19 -87 -41 -18 -54 -20 -95 -18 -26 1 -28 4 -28 40
0 33 6 44 35 68 45 37 83 36 107 -3z"/>
<path d="M2783 4627 c-40 -5 -73 -13 -73 -19 0 -6 -7 -8 -15 -4 -8 3 -15 2
-15 -3 0 -5 -9 -11 -20 -14 -11 -3 -18 -1 -15 3 3 4 -4 6 -15 3 -11 -3 -18 -9
-15 -13 5 -9 -18 -20 -42 -20 -9 0 -49 -25 -89 -55 -60 -45 -78 -65 -104 -118
-30 -62 -53 -177 -34 -177 5 0 17 26 26 59 18 61 90 167 131 194 13 8 66 29
118 46 52 18 116 39 142 48 70 23 251 23 348 0 42 -10 97 -31 122 -47 39 -24
53 -43 90 -120 49 -100 67 -104 43 -9 -9 33 -14 64 -11 68 9 15 -46 81 -88
105 -94 54 -184 78 -302 79 -60 1 -143 -2 -182 -6z"/>
<path d="M2864 4536 c-28 -7 -65 -23 -82 -36 -34 -26 -87 -94 -102 -135 l-10
-26 31 22 c24 17 40 20 76 16 82 -9 110 -82 46 -120 -29 -16 -38 -17 -92 -6
-34 6 -61 16 -61 20 0 5 -5 9 -11 9 -25 0 17 -183 53 -229 26 -35 23 -39 -29
-44 -27 -3 33 -4 132 -2 210 3 272 18 386 94 52 36 66 50 66 70 0 14 4 49 8
77 12 83 -13 151 -80 212 -31 29 -75 57 -102 66 -65 23 -167 28 -229 12z m300
-107 c14 -17 26 -35 26 -40 0 -19 3 -24 20 -36 28 -20 33 -75 13 -158 l-17
-74 -55 -29 c-68 -36 -85 -40 -229 -57 l-113 -13 -32 29 c-17 16 -34 29 -38
29 -11 0 -41 82 -45 121 l-3 36 44 -10 c38 -9 41 -12 29 -24 -8 -8 -14 -18
-14 -22 0 -18 31 -33 54 -27 17 4 34 -3 62 -25 35 -28 44 -31 91 -26 67 7 141
43 159 79 18 34 10 76 -27 151 -16 32 -29 62 -29 67 0 17 43 60 60 60 10 0 30
-14 44 -31z"/>
<path d="M5260 4310 c-7 -17 -35 -51 -62 -75 -28 -25 -45 -45 -40 -45 20 0
132 112 132 131 0 29 -16 23 -30 -11z"/>
<path d="M4370 4256 c0 -2 7 -7 16 -10 8 -3 12 -2 9 4 -6 10 -25 14 -25 6z"/>
<path d="M3285 4170 c-3 -6 1 -7 9 -4 18 7 21 14 7 14 -6 0 -13 -4 -16 -10z"/>
<path d="M2387 4139 c3 -11 17 -28 32 -37 14 -9 41 -29 59 -44 18 -15 40 -28
50 -28 13 1 12 4 -6 13 -29 16 -112 97 -112 108 0 5 -6 9 -14 9 -9 0 -12 -7
-9 -21z"/>
<path d="M3820 4121 c-25 -10 -73 -33 -108 -51 -52 -28 -64 -39 -73 -70 -11
-37 0 -80 20 -80 4 0 19 -10 32 -21 13 -12 58 -38 99 -58 61 -29 86 -36 136
-36 71 0 90 9 199 88 75 55 131 120 119 139 -8 12 37 1 139 -34 49 -16 91 -28
94 -25 17 18 -30 37 -177 72 -35 9 -87 27 -115 40 -54 26 -199 55 -274 55 -25
-1 -66 -9 -91 -19z"/>
<path d="M2575 4020 c11 -5 29 -9 40 -9 17 -1 17 1 5 9 -8 5 -26 9 -40 9 -23
0 -23 -1 -5 -9z"/>
<path d="M3535 3977 c-101 -54 -168 -97 -162 -104 3 -2 23 7 44 21 20 14 41
26 46 26 9 0 167 91 167 96 0 9 -20 1 -95 -39z"/>
<path d="M3950 3790 c-13 -40 3 -101 21 -83 6 6 4 25 -5 49 -8 21 -15 37 -16
34z"/>
<path d="M3975 3497 l6 -68 -67 -70 c-37 -38 -64 -69 -59 -69 14 0 78 51 110
87 29 32 31 33 58 19 16 -9 27 -11 27 -4 0 7 6 6 18 -2 9 -7 4 -1 -11 14 -15
14 -36 26 -46 26 -13 0 -17 6 -14 28 2 15 -3 45 -12 67 l-15 40 5 -68z"/>
<path d="M4461 3330 c-12 -27 -24 -64 -26 -82 -6 -37 -3 -32 38 70 30 73 19
85 -12 12z"/>
<path d="M4100 3354 c7 -7 16 -11 21 -8 5 3 17 0 27 -5 21 -11 102 -31 102
-25 0 8 -98 46 -128 49 -28 3 -31 1 -22 -11z"/>
<path d="M4061 3329 c-1 -18 20 -82 25 -77 2 2 -3 24 -11 48 -7 25 -14 38 -14
29z"/>
<path d="M4762 3298 c-7 -7 -58 -14 -133 -16 -140 -5 -143 -22 -3 -22 96 0
149 12 158 36 7 17 -6 18 -22 2z"/>
<path d="M3705 3280 c22 -5 55 -9 72 -9 50 -1 213 -57 263 -91 48 -32 60 -36
60 -20 0 6 -4 10 -10 10 -5 0 -37 18 -70 39 -69 45 -157 69 -278 76 -61 3 -69
3 -37 -5z"/>
<path d="M4470 3264 c0 -8 5 -24 10 -35 9 -16 7 -19 -12 -19 -13 0 -30 -5 -38
-10 -11 -7 3 -10 45 -10 43 1 55 3 44 10 -15 9 -35 55 -31 73 1 4 -2 7 -8 7
-5 0 -10 -7 -10 -16z"/>
<path d="M3720 3252 c0 -12 50 -46 56 -39 3 3 -9 15 -25 27 -17 12 -31 17 -31
12z"/>
<path d="M3673 3201 c-59 -23 -65 -34 -9 -17 27 8 51 17 54 20 12 13 -5 12
-45 -3z"/>
<path d="M5161 3155 c36 -122 26 -347 -28 -627 -3 -18 -3 -30 1 -27 10 9 34
132 51 260 27 205 14 404 -29 447 -13 13 -12 5 5 -53z"/>
<path d="M2957 3204 c-9 -9 3 -125 15 -144 6 -10 7 0 3 27 -4 24 -4 56 0 73 6
26 9 29 26 19 11 -6 28 -9 37 -6 12 2 5 9 -22 20 -42 19 -50 20 -59 11z"/>
<path d="M3825 3170 c10 -11 20 -20 23 -20 3 0 -3 9 -13 20 -10 11 -20 20 -23
20 -3 0 3 -9 13 -20z"/>
<path d="M3692 3122 c-26 -56 -30 -60 -106 -95 -44 -20 -76 -40 -73 -43 4 -4
12 -2 19 3 7 5 33 18 58 27 85 33 112 49 99 57 -9 5 -7 15 8 41 23 39 34 68
27 68 -3 0 -17 -26 -32 -58z"/>
<path d="M3070 3160 c8 -5 22 -9 30 -9 10 0 8 3 -5 9 -27 12 -43 12 -25 0z"/>
<path d="M4560 3160 c-8 -5 -10 -10 -5 -10 6 0 17 5 25 10 8 5 11 10 5 10 -5
0 -17 -5 -25 -10z"/>
<path d="M3290 3141 c28 -22 99 -33 118 -18 8 6 12 6 12 -2 0 -7 10 -9 28 -5
58 14 50 21 -27 23 -45 1 -93 6 -107 11 -40 16 -51 11 -24 -9z"/>
<path d="M3153 3129 c10 -6 48 -21 85 -34 37 -13 103 -40 147 -59 104 -47 131
-47 35 0 -117 57 -335 132 -267 93z"/>
<path d="M4968 3120 c-20 -11 -40 -25 -43 -31 -8 -12 39 11 70 35 27 21 18 19
-27 -4z"/>
<path d="M4502 3121 c-10 -6 -8 -10 10 -14 121 -27 278 -85 278 -103 0 -2 -14
-11 -31 -19 -17 -9 -28 -19 -25 -22 3 -3 21 5 40 17 l36 21 -28 23 c-41 35
-98 61 -183 85 -86 24 -80 23 -97 12z"/>
<path d="M3785 3100 c-13 -5 -14 -9 -5 -9 8 0 24 4 35 9 13 5 14 9 5 9 -8 0
-24 -4 -35 -9z"/>
<path d="M3720 3080 c-18 -12 -2 -12 25 0 13 6 15 9 5 9 -8 0 -22 -4 -30 -9z"/>
<path d="M2970 3016 c0 -14 4 -27 8 -30 5 -3 6 8 4 25 -5 35 -12 38 -12 5z"/>
<path d="M4135 2968 c-23 -68 -44 -194 -48 -298 -4 -83 -3 -105 2 -65 5 33 16
92 25 130 10 39 19 97 20 131 2 33 8 70 15 81 7 15 8 24 1 28 -6 3 -12 0 -15
-7z"/>
<path d="M2986 2915 c9 -87 66 -256 111 -325 35 -55 53 -73 53 -52 0 4 -13 29
-30 55 -16 26 -30 51 -30 56 0 5 -12 35 -27 67 -15 32 -39 104 -55 159 -26 95
-27 97 -22 40z"/>
<path d="M4670 2914 c8 -12 44 -57 79 -100 95 -117 156 -260 201 -475 25 -118
38 -305 22 -295 -15 9 -15 -8 -1 -74 13 -63 7 -90 -31 -134 -17 -18 -30 -37
-30 -41 0 -14 42 29 57 58 8 16 17 26 20 23 8 -7 29 48 50 127 9 31 19 57 22
57 10 0 31 -63 31 -93 0 -15 4 -27 9 -27 11 0 27 128 17 137 -3 4 -6 -14 -7
-38 l0 -44 -15 48 c-8 26 -19 47 -24 47 -6 0 -11 15 -11 33 -1 22 -8 5 -23
-55 -12 -48 -24 -89 -27 -93 -3 -3 -9 57 -12 132 -4 85 -14 167 -26 213 -74
286 -97 352 -148 432 -31 49 -100 128 -143 163 l-24 20 14 -21z"/>
<path d="M4231 2710 c0 -8 8 -33 18 -55 11 -22 19 -33 19 -25 1 20 -36 99 -37
80z"/>
<path d="M4033 2660 c0 -25 2 -35 4 -22 2 12 2 32 0 45 -2 12 -4 2 -4 -23z"/>
<path d="M4321 2512 c-1 -14 27 -72 35 -72 2 0 -2 12 -9 28 -8 15 -17 34 -20
42 -4 10 -6 11 -6 2z"/>
<path d="M3113 2493 c-3 -10 -8 -22 -10 -28 -3 -5 3 -1 11 9 16 20 21 36 11
36 -3 0 -8 -8 -12 -17z"/>
<path d="M3255 2484 c-3 -16 -10 -46 -14 -66 -5 -20 -6 -40 -3 -43 4 -3 12 24
19 61 12 66 10 106 -2 48z"/>
<path d="M3150 2475 c-12 -22 -11 -27 6 -40 10 -8 22 -15 27 -15 4 0 7 -9 7
-19 0 -19 17 -38 26 -29 7 8 -26 78 -36 78 -7 0 -7 6 -1 19 10 17 6 31 -9 31
-4 0 -13 -11 -20 -25z"/>
<path d="M5120 2479 c0 -5 7 -9 15 -9 18 0 19 5 -5 -58 -11 -29 -20 -60 -20
-70 1 -12 60 121 60 134 0 1 -11 4 -25 6 -14 3 -25 1 -25 -3z"/>
<path d="M4555 2450 c5 -8 17 -27 27 -42 l19 -28 -33 5 -33 5 35 -11 c19 -6
45 -15 58 -20 12 -5 22 -6 22 -4 0 3 -23 29 -51 58 -29 28 -48 45 -44 37z"/>
<path d="M3877 2398 c-15 -119 -6 -252 24 -367 4 -19 7 -36 5 -38 -1 -2 -21 6
-44 17 -22 11 -47 20 -55 20 -7 0 -16 3 -20 6 -13 13 -104 13 -194 -1 -124
-18 -163 -45 -163 -111 0 -47 14 -59 24 -21 3 12 17 36 30 52 23 27 25 28 26
9 0 -11 12 -44 26 -73 20 -40 30 -51 43 -45 37 15 62 17 61 3 -4 -28 0 -37 21
-42 57 -15 139 58 139 123 0 37 15 38 52 3 38 -36 43 -25 11 22 l-26 38 24 -6
c13 -4 29 -7 36 -7 7 0 19 -12 26 -26 13 -25 15 -22 26 64 6 50 14 99 16 109
3 10 -1 5 -9 -12 -8 -16 -16 -46 -16 -65 -1 -19 -5 -44 -9 -54 -15 -40 -35
107 -37 277 -1 92 -4 170 -6 173 -3 2 -8 -19 -11 -48z m-107 -496 c0 -29 -28
-60 -66 -72 -40 -13 -51 -7 -56 30 -3 24 -1 25 47 25 42 0 50 3 47 18 -2 10 3
17 13 17 8 0 15 -8 15 -18z m-150 -6 c0 -11 -19 -15 -25 -6 -3 5 1 10 9 10 9
0 16 -2 16 -4z"/>
<path d="M3061 2364 c0 -11 3 -14 6 -6 3 7 2 16 -1 19 -3 4 -6 -2 -5 -13z"/>
<path d="M4368 2373 c6 -2 18 -2 25 0 6 3 1 5 -13 5 -14 0 -19 -2 -12 -5z"/>
<path d="M3220 2335 c0 -8 5 -15 10 -15 6 0 10 7 10 15 0 8 -4 15 -10 15 -5 0
-10 -7 -10 -15z"/>
<path d="M5092 2292 c-22 -45 -25 -58 -9 -37 15 19 15 18 21 -15 3 -19 7 -53
9 -75 3 -35 4 -33 4 10 1 28 -2 71 -5 97 l-7 48 -13 -28z"/>
<path d="M3223 2230 c0 -36 2 -50 4 -32 2 17 2 47 0 65 -2 17 -4 3 -4 -33z"/>
<path d="M4360 2258 c0 -7 18 -41 39 -75 38 -60 39 -62 18 -66 -20 -4 -19 -4
3 -5 14 0 43 3 65 7 l40 9 -36 1 c-31 1 -40 7 -72 54 -21 30 -37 58 -37 65 0
6 -4 14 -10 17 -5 3 -10 0 -10 -7z"/>
<path d="M3111 2223 c-2 -75 57 -289 74 -271 3 3 -4 25 -15 50 -21 49 -53 186
-47 203 2 5 1 19 -4 30 -6 16 -8 14 -8 -12z"/>
<path d="M4659 2165 c5 -11 17 -29 26 -40 l16 -20 -10 20 c-5 11 -17 29 -26
40 l-16 20 10 -20z"/>
<path d="M3401 2133 c-1 -38 15 -101 23 -92 2 2 -2 33 -9 69 -12 60 -13 62
-14 23z"/>
<path d="M3040 2094 c0 -14 4 -23 10 -19 6 3 10 15 10 26 0 10 -4 19 -10 19
-5 0 -10 -12 -10 -26z"/>
<path d="M4252 2090 c0 -19 2 -27 5 -17 2 9 2 25 0 35 -3 9 -5 1 -5 -18z"/>
<path d="M4366 2111 c-4 -7 -5 -15 -2 -18 9 -9 19 4 14 18 -4 11 -6 11 -12 0z"/>
<path d="M3688 2103 c6 -2 18 -2 25 0 6 3 1 5 -13 5 -14 0 -19 -2 -12 -5z"/>
<path d="M3780 2094 c0 -8 5 -12 10 -9 6 4 8 11 5 16 -9 14 -15 11 -15 -7z"/>
<path d="M4940 2081 c0 -5 5 -13 10 -16 6 -3 10 -2 10 4 0 5 -4 13 -10 16 -5
3 -10 2 -10 -4z"/>
<path d="M4475 2068 c-77 -12 -185 -58 -185 -78 0 -13 7 -13 30 0 18 10 19 9
4 -31 -8 -23 -13 -44 -11 -46 2 -1 16 10 30 27 34 38 43 38 51 -1 6 -31 7 -32
51 -26 28 4 45 3 45 -4 0 -6 4 -8 9 -5 13 8 121 15 121 7 -2 -24 -34 -44 -80
-49 -44 -4 -50 -2 -50 14 0 13 -3 15 -11 7 -23 -23 -2 -43 44 -43 73 0 111 22
141 82 14 28 26 62 26 75 0 13 6 23 13 23 22 0 57 -40 57 -65 0 -18 4 -23 15
-19 9 4 14 14 11 23 -2 9 -7 27 -10 41 -3 14 -22 36 -42 49 -31 22 -47 25
-127 25 -51 1 -110 -2 -132 -6z m145 -53 c0 -8 -5 -15 -11 -15 -5 0 -8 4 -4 9
3 5 -3 12 -12 14 -14 4 -13 5 5 6 13 1 22 -5 22 -14z"/>
<path d="M4930 2026 c-5 -15 -10 -36 -10 -46 0 -11 -11 -54 -25 -97 -14 -43
-25 -91 -25 -106 0 -16 -7 -35 -15 -43 -17 -18 -20 -34 -5 -34 6 0 10 8 11 18
0 9 3 12 5 5 9 -21 -61 -117 -118 -161 -83 -64 -296 -150 -445 -179 -118 -23
-164 -26 -223 -13 -30 6 -68 13 -85 16 -154 25 -265 48 -290 59 -16 8 -48 21
-70 31 -22 9 -58 29 -80 44 -22 15 -46 25 -52 23 -7 -3 -13 2 -13 10 0 8 -6
20 -14 27 -8 6 -27 43 -42 81 -31 78 -51 102 -40 48 l6 -34 -19 31 c-26 43
-40 49 -49 23 -8 -21 -9 -21 -29 12 -11 19 -30 60 -42 91 -13 32 -29 62 -37
69 -11 9 -11 7 0 -17 8 -16 30 -63 50 -105 20 -42 42 -82 51 -89 13 -11 15 -8
15 20 l0 33 28 -39 c15 -21 36 -60 46 -86 12 -33 30 -56 59 -77 23 -17 47 -35
54 -41 7 -5 16 -10 21 -10 5 0 21 -9 34 -20 14 -10 29 -16 33 -12 5 4 5 2 2
-4 -4 -6 11 -52 33 -102 32 -74 40 -106 44 -176 3 -47 8 -124 12 -171 l5 -85
-28 0 c-35 0 -173 -38 -190 -52 -10 -8 -13 10 -13 88 -1 77 -3 95 -12 80 -7
-12 -8 -48 -4 -102 5 -53 3 -85 -4 -89 -11 -7 -13 -60 -4 -129 l7 -46 42 0
c23 0 63 6 88 14 31 9 45 10 40 3 -9 -15 -5 -78 13 -159 7 -38 14 -71 14 -73
0 -10 -86 36 -97 52 -7 9 -21 42 -30 73 -19 62 -37 91 -27 44 3 -18 0 -45 -10
-67 -16 -40 -13 -57 17 -98 18 -25 18 -28 2 -83 -17 -58 -17 -58 9 -116 15
-33 26 -76 26 -101 0 -24 10 -69 22 -101 l23 -58 137 0 c76 0 138 1 138 3 0 2
-11 41 -25 87 -34 115 -32 170 5 125 18 -22 149 -81 208 -94 29 -6 78 -11 107
-11 l55 0 0 -55 0 -55 65 0 c61 0 65 2 71 25 3 14 4 34 1 45 -6 24 1 25 25 3
32 -29 32 -5 -1 27 -17 17 -31 35 -31 39 0 4 15 12 34 19 45 17 142 103 187
167 20 29 55 71 78 94 34 34 45 40 60 32 24 -13 46 -48 71 -113 24 -63 25 -84
6 -91 -10 -4 -17 4 -22 26 -19 88 -68 102 -113 32 -16 -25 -34 -59 -41 -75 -7
-17 -18 -30 -24 -30 -6 0 -44 -36 -85 -80 -41 -44 -77 -77 -81 -75 -4 2 -5 -7
-2 -21 5 -25 6 -25 71 -21 36 3 84 9 106 14 40 9 159 68 181 88 6 6 42 28 79
50 37 22 88 62 112 89 54 61 53 80 -11 177 -51 77 -78 127 -105 199 l-20 52
26 24 c22 21 25 29 19 66 -4 25 -24 71 -48 108 l-42 65 -10 -37 -10 -38 -56 0
c-32 0 -78 -3 -104 -6 l-47 -7 6 194 c4 107 11 209 15 227 13 50 158 259 209
301 57 46 101 115 101 157 0 18 5 36 11 40 8 5 7 9 -1 14 -10 6 -6 37 19 135
30 119 35 174 11 111z m-782 -676 l57 0 -31 -19 c-18 -11 -33 -24 -35 -30 -2
-6 -22 6 -44 25 -22 20 -32 33 -22 30 10 -3 44 -6 75 -6z m269 -174 c11 -31
38 -69 73 -103 30 -31 56 -66 58 -80 2 -15 -1 -22 -8 -18 -5 3 -10 13 -10 20
0 27 -99 94 -171 116 -98 30 -297 23 -410 -14 -101 -33 -165 -71 -200 -120
-16 -22 -29 -34 -29 -27 0 8 33 48 74 89 60 63 116 147 116 176 0 4 16 23 35
43 l34 37 31 -30 c17 -17 31 -25 30 -20 -5 24 2 24 37 0 50 -33 86 -32 133 5
21 17 51 37 66 45 26 13 29 12 75 -28 32 -28 54 -58 66 -91z m-451 -178 c10
-12 13 -18 7 -14 -7 4 -18 4 -25 0 -8 -5 -6 -10 8 -15 12 -6 4 -7 -24 -5 -23
2 -40 1 -37 -2 2 -3 -8 -12 -23 -20 -32 -17 -82 -33 -82 -26 0 33 89 104 130
104 15 0 35 -10 46 -22z m-154 -135 c-10 -4 -10 -8 0 -21 12 -13 10 -14 -9 -3
-27 14 -30 28 -5 33 21 5 32 -3 14 -9z m857 -197 c37 -2 73 -6 79 -10 15 -9
16 -112 1 -121 -6 -4 -8 -14 -5 -22 3 -8 2 -11 -3 -8 -5 3 -12 -4 -16 -15 -3
-11 -13 -20 -21 -20 -18 0 -17 10 1 34 8 11 15 24 15 29 0 6 -18 -18 -40 -51
-22 -34 -43 -62 -48 -62 -18 0 -20 13 -6 45 20 49 17 62 -7 31 -11 -14 -24
-26 -29 -26 -5 0 -7 33 -4 73 5 69 4 71 -10 42 -13 -26 -14 -27 -15 -8 -1 12
-6 25 -12 28 -6 4 -7 14 -4 24 4 9 8 23 10 31 2 8 4 16 4 18 1 2 10 0 22 -3
11 -4 51 -8 88 -9z m-329 -536 c0 -5 -4 -10 -10 -10 -5 0 -10 5 -10 10 0 6 5
10 10 10 6 0 10 -4 10 -10z"/>
<path d="M4036 1173 c-4 -9 0 -23 9 -32 13 -14 15 -12 15 17 0 34 -14 43 -24
15z"/>
<path d="M3260 1984 c0 -20 21 -84 30 -89 5 -3 2 16 -7 42 -16 50 -23 63 -23
47z"/>
<path d="M4231 1964 c0 -11 3 -14 6 -6 3 7 2 16 -1 19 -3 4 -6 -2 -5 -13z"/>
<path d="M4221 1914 c0 -11 3 -14 6 -6 3 7 2 16 -1 19 -3 4 -6 -2 -5 -13z"/>
<path d="M4106 1887 c3 -10 9 -15 12 -12 3 3 0 11 -7 18 -10 9 -11 8 -5 -6z"/>
<path d="M4801 1884 c0 -11 3 -14 6 -6 3 7 2 16 -1 19 -3 4 -6 -2 -5 -13z"/>
<path d="M4212 1870 c0 -14 2 -19 5 -12 2 6 2 18 0 25 -3 6 -5 1 -5 -13z"/>
<path d="M4201 1824 c0 -11 3 -14 6 -6 3 7 2 16 -1 19 -3 4 -6 -2 -5 -13z"/>
<path d="M3441 1735 c0 -16 6 -43 14 -60 l14 -30 -6 35 c-4 19 -10 46 -14 60
-7 24 -7 24 -8 -5z"/>
<path d="M4776 1531 c-4 -6 -3 -17 3 -24 5 -7 12 -44 14 -82 l3 -70 1 75 c2
79 -8 123 -21 101z"/>
<path d="M3506 1435 c-9 -26 -7 -32 5 -12 6 10 9 21 6 23 -2 3 -7 -2 -11 -11z"/>
<path d="M3485 1350 c-4 -17 -5 -34 -2 -36 3 -3 8 9 12 26 4 17 5 34 2 36 -3
3 -8 -9 -12 -26z"/>
<path d="M4780 1125 c0 -71 2 -126 5 -124 7 7 8 239 1 246 -3 4 -6 -51 -6
-122z"/>
<path d="M176 743 c-3 -3 -5 -56 -4 -117 l2 -111 3 105 c2 60 8 107 14 111 7
4 7 9 1 12 -5 4 -12 4 -16 0z"/>
<path d="M3590 573 c15 -51 22 -63 37 -63 12 0 12 3 -2 16 -9 9 -19 29 -22 45
-3 16 -9 29 -14 29 -4 0 -4 -12 1 -27z"/>
<path d="M181 494 c0 -11 3 -14 6 -6 3 7 2 16 -1 19 -3 4 -6 -2 -5 -13z"/>
<path d="M3211 344 c0 -11 3 -14 6 -6 3 7 2 16 -1 19 -3 4 -6 -2 -5 -13z"/>
<path d="M3223 265 c0 -27 2 -38 4 -22 2 15 2 37 0 50 -2 12 -4 0 -4 -28z"/>
<path d="M3270 255 c0 -8 4 -15 10 -15 5 0 7 7 4 15 -4 8 -8 15 -10 15 -2 0
-4 -7 -4 -15z"/>
<path d="M370 180 l-25 -8 28 -1 c15 -1 27 4 27 9 0 6 -1 10 -2 9 -2 -1 -14
-5 -28 -9z"/>
<path d="M328 153 c11 -16 40 -46 64 -68 41 -39 34 -28 -35 50 -15 16 -27 33
-27 37 0 5 -5 8 -11 8 -6 0 -1 -12 9 -27z"/>
<path d="M3230 105 c0 -27 3 -45 7 -41 7 7 5 77 -2 85 -3 2 -5 -17 -5 -44z"/>
<path d="M3320 145 c0 -5 5 -17 10 -25 5 -8 10 -10 10 -5 0 6 -5 17 -10 25 -5
8 -10 11 -10 5z"/>
<path d="M3341 95 c0 -5 11 -30 24 -55 13 -25 24 -41 24 -35 0 6 -11 30 -24
55 -13 25 -24 41 -24 35z"/>
<path d="M4788 94 c-7 -10 6 -81 16 -91 7 -8 6 32 -3 72 -3 17 -9 25 -13 19z"/>
<path d="M450 21 c14 -11 30 -21 35 -21 11 0 -7 14 -40 31 -13 7 -12 3 5 -10z"/>
</g>
</svg>
